<svg width="24" height="24" viewBox="0 0 24 24" fill="none" xmlns="http://www.w3.org/2000/svg">
<path d="M9.50933 5.95869L4.756 8.72269L0 5.95736L4.756 3.19336L9.50933 5.95869Z" fill="#5EA0EF"/>
<path d="M9.50931 18.3921L4.75464 15.6467V21.1561L9.50931 18.3921Z" fill="#005BA1"/>
<path d="M4.756 8.72267L4.75467 8.72134V8.72267L0 5.95734V18.4013L4.75467 21.1653L9.50933 18.4013V18.392L4.75467 21.156V15.6467L9.50933 18.392V5.95867L4.756 8.72267Z" fill="#0078D4"/>
<path d="M14.4906 5.95869L19.2439 8.72269L23.9999 5.95736L19.2439 3.19336L14.4906 5.95869Z" fill="#9CEBFF"/>
<path d="M14.4906 18.3921L19.2453 15.6467V21.1561L14.4906 18.3921Z" fill="#32BEDD"/>
<path d="M19.2439 8.71328H19.2453V15.6373L14.4906 18.3919V5.94928L19.2439 8.71328Z" fill="url(#paint0_linear_548_3946)"/>
<path d="M14.4906 5.95869L19.2439 8.72269L23.9999 5.95736L19.2439 3.19336L14.4906 5.95869Z" fill="#9CEBFF"/>
<path d="M19.2439 8.72267L14.4906 5.95867V18.392L19.2453 15.6467V21.156L14.4906 18.392V18.4013L19.2453 21.1653L23.9999 18.4013V5.95734L19.2439 8.72267Z" fill="#50E6FF"/>
<path d="M14.4906 18.3921L19.2453 15.6467V21.1561L14.4906 18.3921Z" fill="#32BEDD"/>
<path d="M19.2439 8.71328H19.2453V15.6373L14.4906 18.3919V5.94928L19.2439 8.71328Z" fill="url(#paint1_linear_548_3946)"/>
<path d="M4.75597 8.72135H4.75464V15.6453L9.50931 18.4013V5.95868L4.75597 8.72135Z" fill="url(#paint2_linear_548_3946)"/>
<path d="M19.2307 13.5015C18.3987 15.5761 15.1427 16.9468 12.1 16.9468H11.992H11.8853C8.84268 16.9468 5.58668 15.5761 4.75468 13.5015C4.75468 13.5015 4.72135 11.4201 4.75468 11.2175C5.36002 13.5335 8.53335 15.2468 11.812 15.2468H11.992H12.1733C15.4467 15.2468 18.6253 13.5335 19.2307 11.2175C19.264 11.4201 19.2307 13.5015 19.2307 13.5015ZM17.8667 7.92279C16.2562 9.22185 14.2423 9.91706 12.1733 9.88812H11.992H11.812C9.74519 9.91729 7.733 9.22408 6.12268 7.92812L4.98135 8.59479C6.07068 10.4121 9.06668 11.5868 11.8853 11.5868H12.1C14.92 11.5868 17.9213 10.4095 19.008 8.58546L17.8667 7.92279Z" fill="url(#paint3_linear_548_3946)"/>
<defs>
<linearGradient id="paint0_linear_548_3946" x1="19.2453" y1="12.1706" x2="14.4906" y2="12.1706" gradientUnits="userSpaceOnUse">
<stop stop-color="#32BEDD"/>
<stop offset="0.998" stop-color="#9CEBFF" stop-opacity="0.5"/>
</linearGradient>
<linearGradient id="paint1_linear_548_3946" x1="19.2453" y1="12.1706" x2="14.4906" y2="12.1706" gradientUnits="userSpaceOnUse">
<stop stop-color="#32BEDD"/>
<stop offset="0.998" stop-color="#9CEBFF" stop-opacity="0.5"/>
</linearGradient>
<linearGradient id="paint2_linear_548_3946" x1="4.75597" y1="12.18" x2="9.51064" y2="12.18" gradientUnits="userSpaceOnUse">
<stop stop-color="#005BA1"/>
<stop offset="0.998" stop-color="#005BA1" stop-opacity="0"/>
</linearGradient>
<linearGradient id="paint3_linear_548_3946" x1="4.74002" y1="12.4348" x2="19.2453" y2="12.4348" gradientUnits="userSpaceOnUse">
<stop stop-color="#005BA1"/>
<stop offset="0.974" stop-color="#32BEDD"/>
</linearGradient>
</defs>
</svg>
